<?xml version="1.0" encoding="utf-8"?>
<!-- Generator: Adobe Illustrator 24.0.2, SVG Export Plug-In . SVG Version: 6.00 Build 0)  -->
<svg version="1.1" id="Capa_1" xmlns="http://www.w3.org/2000/svg" xmlns:xlink="http://www.w3.org/1999/xlink" x="0px" y="0px"
	 viewBox="0 0 762 836" style="enable-background:new 0 0 762 836;" xml:space="preserve">
<style type="text/css">
	.st0{fill:#EEF1FF;}
	.st1{fill:none;stroke:#FFFFFF;stroke-width:3;stroke-linecap:round;stroke-opacity:0.8;}
</style>
<rect y="0" class="st0" width="762" height="836"/>
<path class="st1" d="M776,228.5c-21.2,50.3-68.7,132.8-97,180.5c-3.5,6-7.9,11.7-11.2,17.8c-5.2,9.5-8.9,24.2-7.5,34.5
	c3.1,24.1,36,45.2,60.2,56.6c17.1,8,32,19.1,51,24.2"/>
<path class="st1" d="M766.5,126.5c-27.4,65.2-108.4,222.8-145,284.6c-4.6,7.7-10.2,15.2-14.4,23.1c-6.7,12.4-11.5,31.4-9.7,44.8
	c4.1,31.3,46.5,58.7,77.8,73.4c22.1,10.4,64.3,36,88.9,42.6"/>
<path class="st1" d="M763,12.5C722.3,109.5,632.8,300,578.4,392c-6.8,11.5-15.1,22.7-21.4,34.3c-10,18.4-17,46.7-14.4,66.6
	c6,46.5,69.1,87.3,115.6,109.2c32.8,15.5,68.9,40.9,105.4,50.8"/>
</svg>
