<?xml version="1.0" encoding="utf-8"?>
<!-- Generator: Adobe Illustrator 24.0.2, SVG Export Plug-In . SVG Version: 6.00 Build 0)  -->
<svg version="1.1" id="Capa_1" xmlns="http://www.w3.org/2000/svg" xmlns:xlink="http://www.w3.org/1999/xlink" x="0px" y="0px"
	 viewBox="0 0 642 150" style="enable-background:new 0 0 642 150;" xml:space="preserve">
<style type="text/css">
	.st0{fill:#1E7CFF;}
</style>
<g transform="matrix(3.6457 0 0 3.6457 5.5147 1.9745)">
	<path class="st0" d="M23.8,39.4h7.3V10h-7.3v2.4C16.9,7.6,7.5,9.3,2.7,16.2s-3.1,16.3,3.8,21.1c5.2,3.6,12.1,3.6,17.3,0V39.4z
		 M7.1,24.8c0-4.6,3.8-8.4,8.4-8.4s8.4,3.8,8.4,8.4s-3.8,8.4-8.4,8.4S7.1,29.5,7.1,24.8L7.1,24.8 M57.9,0v12.4
		c-6.9-4.8-16.3-3-21.1,3.8s-3,16.3,3.8,21.1c5.2,3.6,12.1,3.6,17.3,0v2.1h7.3V0H57.9z M41.2,24.8c0-4.6,3.8-8.4,8.4-8.4
		s8.4,3.8,8.4,8.4s-3.8,8.4-8.4,8.4S41.2,29.5,41.2,24.8L41.2,24.8 M76.1,0h-7.3v7.3h7.3V0z M76.1,10h-7.3v29.4h7.3V10z M102.9,0
		v12.4C96,7.6,86.6,9.3,81.8,16.2s-3.1,16.3,3.8,21.1c5.2,3.6,12.1,3.6,17.3,0v2.1h7.3V0H102.9z M86.2,24.8c0-4.6,3.8-8.4,8.4-8.4
		s8.4,3.8,8.4,8.4s-3.8,8.4-8.4,8.4S86.2,29.5,86.2,24.8L86.2,24.8 M137.1,39.4h7.3V10h-7.3v2.4c-6.9-4.8-16.3-3.1-21.1,3.8
		s-3.1,16.3,3.8,21.1c5.2,3.6,12.1,3.6,17.3,0V39.4z M120.4,24.8c0-4.6,3.8-8.4,8.4-8.4c4.6,0,8.4,3.8,8.4,8.4s-3.8,8.4-8.4,8.4
		C124.1,33.2,120.4,29.5,120.4,24.8L120.4,24.8 M147.1,29.8c0.2,5.9,5.3,10.1,13.7,10.1c6.9,0,12.6-3,12.6-9.6
		c0-4.6-2.6-7.3-8.6-8.4l-4.7-0.9c-3-0.6-5.1-1.1-5.1-2.9c0-2,2-2.8,4.5-2.8c3.7,0,5.2,1.8,5.3,4h7.4c-0.4-5.8-5-9.6-12.4-9.6
		c-7.6,0-12.2,4.2-12.2,9.7c0,6.7,5.4,7.8,10.1,8.6l3.9,0.7c2.8,0.5,4,1.3,4,2.9c0,1.4-1.4,2.9-4.7,2.9c-4.8,0-6.3-2.5-6.4-4.6
		L147.1,29.8z"/>
</g>
</svg>
