<?xml version="1.0" encoding="utf-8"?>
<!-- Generator: Adobe Illustrator 24.0.2, SVG Export Plug-In . SVG Version: 6.00 Build 0)  -->
<svg version="1.1" id="Capa_1" xmlns="http://www.w3.org/2000/svg" xmlns:xlink="http://www.w3.org/1999/xlink" x="0px" y="0px"
	 viewBox="0 0 506 505" style="enable-background:new 0 0 506 505;" xml:space="preserve">
<style type="text/css">
	.st0{fill:#DEE3FF;}
	.st1{fill:none;stroke:#FFFFFF;stroke-width:3;stroke-linecap:round;stroke-opacity:0.8;}
</style>
<path class="st0" d="M30,0h445.6c16.6,0,30,13.4,30,30v442.1c0,16.6-13.4,30-30,30H30c-16.6,0-30-13.4-30-30V30C0,13.4,13.4,0,30,0z
	"/>
<g>
	<path class="st1" d="M509.1,26.9c-21.6,51.6-66.9,134.5-95.7,183.4c-3.6,6.1-8,12.1-11.3,18.3c-5.3,9.8-9,24.8-7.6,35.4
		c3.2,24.7,36.6,46.5,61.2,58.1c17.4,8.2,32.5,19.7,51.8,24.9"/>
	<path class="st1" d="M478.7-11.7c-27.7,70.2-86,148.9-122.9,215.5c-4.6,8.3-10.3,16.4-14.6,24.8c-6.8,13.3-11.6,33.8-9.8,48.2
		c4.1,33.6,46.9,63.2,78.5,79c22.2,12.3,68.3,37.2,95.7,47"/>
	<path class="st1" d="M460.6-87.6c-41.3,99.6-94.2,186-149.3,280.5c-6.9,11.8-15.3,23.3-21.7,35.3c-10.2,18.9-17.3,48-14.6,68.4
		c6.1,47.7,70.1,89.7,117.2,112.2c33.3,15.9,81.3,45.3,118.3,55.4"/>
</g>
</svg>
