<?xml version="1.0" encoding="utf-8"?>
<!-- Generator: Adobe Illustrator 24.0.2, SVG Export Plug-In . SVG Version: 6.00 Build 0)  -->
<svg version="1.1" id="Capa_1" xmlns="http://www.w3.org/2000/svg" xmlns:xlink="http://www.w3.org/1999/xlink" x="0px" y="0px"
	 viewBox="0 0 20 20" style="enable-background:new 0 0 20 20;" xml:space="preserve">
<style type="text/css">
	.st0{fill:#FFFFFF;}
	.st1{fill-rule:evenodd;clip-rule:evenodd;fill:#006AFF;}
</style>
<path class="st0" d="M20,10c0,5.5-4.5,10-10,10C4.5,20,0,15.5,0,10C0,4.5,4.5,0,10,0C15.5,0,20,4.5,20,10z"/>
<path class="st1" d="M11.1,6.2c-0.2,0.2-0.2,0.6,0,0.9l2,2.3H5.6C5.2,9.4,5,9.7,5,10c0,0.3,0.2,0.6,0.6,0.6h7.5l-2,2.3
	c-0.2,0.2-0.2,0.6,0,0.9c0.2,0.2,0.6,0.2,0.8,0l3-3.4c0.2-0.2,0.2-0.6,0-0.9l-3-3.4C11.7,5.9,11.3,5.9,11.1,6.2z"/>
</svg>
