<?xml version="1.0" encoding="utf-8"?>
<!-- Generator: Adobe Illustrator 24.0.2, SVG Export Plug-In . SVG Version: 6.00 Build 0)  -->
<svg version="1.1" id="Capa_1" xmlns="http://www.w3.org/2000/svg" xmlns:xlink="http://www.w3.org/1999/xlink" x="0px" y="0px"
	 viewBox="0 0 24 24" style="enable-background:new 0 0 24 24;" xml:space="preserve">
<style type="text/css">
	.st0{fill:#006AFF;}
</style>
<path class="st0" d="M17.6,1l-2.8,0c-3.1,0-5.1,2.1-5.1,5.4v2.5H6.9c-0.2,0-0.4,0.2-0.4,0.4V13c0,0.2,0.2,0.4,0.4,0.4h2.8v9.1
	c0,0.2,0.2,0.4,0.4,0.4h3.6c0.2,0,0.4-0.2,0.4-0.4v-9.1h3.3c0.2,0,0.4-0.2,0.4-0.4l0-3.6c0-0.1,0-0.2-0.1-0.3
	c-0.1-0.1-0.2-0.1-0.3-0.1h-3.3V6.8c0-1,0.2-1.5,1.5-1.5l1.9,0c0.2,0,0.4-0.2,0.4-0.4V1.5C18,1.2,17.8,1,17.6,1z"/>
</svg>
