<?xml version="1.0" encoding="utf-8"?>
<!-- Generator: Adobe Illustrator 24.0.2, SVG Export Plug-In . SVG Version: 6.00 Build 0)  -->
<svg version="1.1" id="Capa_1" xmlns="http://www.w3.org/2000/svg" xmlns:xlink="http://www.w3.org/1999/xlink" x="0px" y="0px"
	 viewBox="0 0 24 24" style="enable-background:new 0 0 24 24;" xml:space="preserve">
<style type="text/css">
	.st0{fill-rule:evenodd;clip-rule:evenodd;fill:#006AFF;}
</style>
<path class="st0" d="M2,12c0-4.2,0-6.3,1.1-7.7c0.3-0.5,0.7-0.9,1.2-1.2C5.7,2,7.8,2,12,2c4.2,0,6.3,0,7.7,1.1
	c0.5,0.3,0.9,0.7,1.2,1.2C22,5.7,22,7.8,22,12c0,4.2,0,6.3-1.1,7.7c-0.3,0.5-0.7,0.9-1.2,1.2C18.3,22,16.2,22,12,22
	c-4.2,0-6.3,0-7.7-1.1c-0.5-0.3-0.9-0.7-1.2-1.2C2,18.3,2,16.2,2,12z M12,6.7c-2.9,0-5.3,2.4-5.3,5.3c0,2.9,2.4,5.3,5.3,5.3
	c2.9,0,5.3-2.4,5.3-5.3C17.3,9.1,14.9,6.7,12,6.7z M12,15.3c-1.8,0-3.3-1.5-3.3-3.3c0-1.8,1.5-3.3,3.3-3.3c1.8,0,3.3,1.5,3.3,3.3
	C15.3,13.8,13.8,15.3,12,15.3z M18.4,6.3c0,0.4-0.3,0.7-0.7,0.7C17.3,7,17,6.7,17,6.3c0-0.4,0.3-0.7,0.7-0.7
	C18.1,5.6,18.4,5.9,18.4,6.3z"/>
</svg>
