<?xml version="1.0" encoding="utf-8"?>
<!-- Generator: Adobe Illustrator 24.0.2, SVG Export Plug-In . SVG Version: 6.00 Build 0)  -->
<svg version="1.1" id="Capa_1" xmlns="http://www.w3.org/2000/svg" xmlns:xlink="http://www.w3.org/1999/xlink" x="0px" y="0px"
	 viewBox="0 0 22 22" style="enable-background:new 0 0 22 22;" xml:space="preserve">
<style type="text/css">
	.st0{fill:#006AFF;}
</style>
<path class="st0" d="M10.1,1.2c0.3-0.8,1.5-0.8,1.8,0l2,5c0.3,0.7,0.9,1.2,1.6,1.2l5.2,0.5C21.7,8,22,9.1,21.4,9.7l-4,3.7
	c-0.5,0.5-0.7,1.2-0.6,1.9l1.2,5.4c0.2,0.9-0.8,1.5-1.5,1.1l-4.4-2.7c-0.6-0.4-1.5-0.4-2.1,0l-4.4,2.7c-0.7,0.5-1.7-0.2-1.5-1.1
	l1.2-5.4c0.1-0.7-0.1-1.4-0.6-1.9l-4-3.7C0,9.1,0.3,8,1.2,7.9l5.2-0.5C7.1,7.4,7.7,6.9,8,6.2L10.1,1.2z"/>
</svg>
